<svg width="30" height="30" viewBox="0 0 30 30" fill="none" xmlns="http://www.w3.org/2000/svg">
<path d="M12.9258 28.0009C12.8444 27.7061 12.781 27.6048 12.7991 27.5218C13.7673 22.7493 9.61419 21.4503 7.14405 19.0732C6.68259 18.6218 5.52443 18.9166 4.68295 18.8889C4.14911 18.8705 3.60623 18.8889 3 18.8889V17.1292H6.41115V8.56081L4.26674 9.56506L3.40717 8.05408C6.39305 6.40489 9.43323 4.98604 12.1929 3.13416C14.6178 1.5034 16.5541 1.7061 18.9066 3.26315C21.5939 5.05053 24.5527 6.41411 27.5114 8.02644L26.6699 9.55585L24.4984 8.52396V17.0002H27.9186L27.991 18.677C27.7828 18.7507 27.629 18.8613 27.5114 18.8429C23.2135 17.8939 21.1958 21.4779 18.4814 23.6154C18.1466 23.8826 18.1828 24.721 18.1556 25.3014C18.1013 26.149 18.1466 27.0059 18.1466 27.918H16.4727L16.2736 26.2504H14.6359L14.5092 27.918L12.9258 27.9917V28.0009ZM12.772 16.991C12.772 16.0144 12.772 15.2036 12.772 14.4021C12.8082 10.1824 12.211 10.7259 16.5632 10.6614C17.7123 10.643 18.2009 11.0668 18.1556 12.2554C18.1013 13.8124 18.1375 15.3695 18.1375 16.9541H22.6164C22.6164 13.923 22.6526 10.9931 22.5711 8.0725C22.5621 7.67633 22.0554 7.15117 21.6482 6.92084C19.8838 5.88895 18.0832 4.91233 16.2646 3.991C15.8484 3.7791 15.1788 3.72382 14.7897 3.9173C12.7901 4.92155 10.8266 6.02715 8.87224 7.12353C8.61889 7.27095 8.32935 7.63026 8.3203 7.89745C8.28411 10.9194 8.29316 13.9322 8.29316 16.991H12.7629H12.772ZM14.654 12.5225V17.0555L16.2374 16.9818V12.5133H14.654V12.5225ZM9.84944 18.935L12.6906 21.2936V18.935H9.84944ZM20.9334 18.9719H18.2733V21.3581L20.9334 18.9719ZM16.2736 20.6395V18.9719H14.663V20.6395H16.2736ZM16.2555 24.2787V22.6388H14.6269V24.2787H16.2555Z" fill="#474747"/>
<path d="M15.5419 8.23833C15.1166 7.7316 14.6099 7.37228 14.6552 7.13273C14.7276 6.7642 15.189 6.46937 15.4786 6.1377C15.759 6.42331 16.2386 6.69049 16.2748 7.00375C16.311 7.317 15.8948 7.67632 15.5419 8.22912V8.23833Z" fill="#474747"/>
</svg>
