<svg width="30" height="30" viewBox="0 0 30 30" fill="none" xmlns="http://www.w3.org/2000/svg">
<path d="M24.2957 28.1237H5.70299C4.31597 28.1237 3.1875 26.9953 3.1875 25.6083V12.3735C3.1875 11.8903 3.57921 11.4985 4.06245 11.4985C4.5457 11.4985 4.93741 11.8903 4.93741 12.3735V25.6083C4.93741 26.0304 5.28083 26.3738 5.70299 26.3738H24.2957C24.7179 26.3738 25.0613 26.0304 25.0613 25.6083V12.3735C25.0613 11.8903 25.453 11.4985 25.9363 11.4985C26.4195 11.4985 26.8112 11.8903 26.8112 12.3735V25.6083C26.8112 26.9953 25.6828 28.1237 24.2957 28.1237Z" fill="#C82021"/>
<path d="M28.1255 15.4353C27.9016 15.4353 27.6777 15.3498 27.5068 15.179L16.6252 4.29743C15.7298 3.40192 14.2727 3.40192 13.3772 4.29743L2.49559 15.179C2.15392 15.5207 1.59992 15.5207 1.25825 15.179C0.916522 14.8373 0.916522 14.2833 1.25825 13.9417L12.1398 3.06003C13.7176 1.48227 16.2849 1.48227 17.8626 3.06003L28.7441 13.9416C29.0859 14.2833 29.0859 14.8373 28.7441 15.179C28.5734 15.3498 28.3494 15.4353 28.1255 15.4353Z" fill="#C82021"/>
<path d="M18.4993 28.1234H11.4997C11.0165 28.1234 10.6248 27.7317 10.6248 27.2485V19.4833C10.6248 17.9756 11.8513 16.749 13.359 16.749H16.6401C18.1477 16.749 19.3743 17.9756 19.3743 19.4833V27.2485C19.3743 27.7317 18.9826 28.1234 18.4993 28.1234ZM12.3747 26.3735H17.6244V19.4833C17.6244 18.9405 17.1828 18.4989 16.6401 18.4989H13.359C12.8162 18.4989 12.3747 18.9405 12.3747 19.4833V26.3735Z" fill="#C82021"/>
</svg>
