<svg width="30" height="30" viewBox="0 0 30 30" fill="none" xmlns="http://www.w3.org/2000/svg">
<path d="M4.04363 15.6942L3.05101 16.5187L2 15.385C5.87873 11.3914 9.60732 7.4922 13.4026 3.66173C14.3953 2.66546 15.7716 2.82864 16.8476 3.91938C18.8746 5.97203 20.8765 8.05904 22.8951 10.1203C23.2037 10.4381 23.5374 10.7387 24.0712 11.2368V4.94141H25.7395C25.7395 6.745 25.8813 8.59153 25.7061 10.3951C25.4976 12.4993 26.1899 14.0452 28 15.2304L26.8823 16.4672L25.9731 15.7458C25.898 15.7887 25.7895 15.823 25.7812 15.8746C25.5727 16.931 24.9888 17.9788 25.7228 19.0609C25.7645 19.1296 25.7478 19.2499 25.7395 19.3357C25.531 21.0105 25.5059 22.6681 25.6894 24.3686C25.8563 25.8974 24.7218 26.9623 23.2204 26.9709C17.7568 27.0053 12.2932 27.0139 6.82964 26.9709C4.76933 26.9537 3.71832 25.0213 4.35226 22.754C4.51075 22.1957 4.37729 21.5602 4.35226 20.959C4.33558 20.3062 4.25217 19.6449 4.26885 18.9922C4.29387 17.9186 4.38563 16.8451 4.44402 15.7715L4.03529 15.6942H4.04363ZM14.9875 14.2256C12.3683 14.2256 9.75746 14.1912 7.13827 14.2599C6.72121 14.2685 6.03722 14.7237 5.97048 15.0673C5.87873 15.5568 6.21238 16.5874 6.4376 16.6046C7.97241 16.7334 9.75746 17.1714 11.0337 16.5531C13.3526 15.4366 15.7215 15.6685 17.8402 16.1494C19.4501 16.5101 21.0099 16.6475 22.6031 16.7678C23.5124 16.8365 24.1129 16.596 24.1046 15.4709C24.0962 14.3201 23.4373 14.1998 22.5614 14.2084C20.034 14.2342 17.5149 14.2084 14.9875 14.217V14.2256ZM12.6185 17.6868V25.2189H17.3981V17.6868H12.6185ZM7.33847 12.4306H22.6615C21.5271 10.6785 20.2175 9.69944 18.0905 9.93133C16.0969 10.146 14.0449 10.1375 12.0513 9.93133C9.9076 9.70803 8.47289 10.5583 7.33847 12.4306ZM11.3507 7.89586L11.5842 8.1621H18.9413C17.6984 6.98548 16.7559 6.10086 15.83 5.19907C15.2544 4.64082 14.7206 4.6494 14.145 5.19907C13.2191 6.10086 12.2849 6.98548 11.3507 7.88727V7.89586ZM10.7918 18.4941C9.41546 18.4941 8.09753 18.4168 6.79628 18.5456C6.46262 18.58 5.94546 19.2842 5.96214 19.6707C5.97883 20.1345 6.4376 20.9246 6.76291 20.9676C8.09753 21.1136 9.45717 21.0277 10.7918 21.0277V18.4941ZM19.1915 21.0277C20.5595 21.0277 21.8357 21.1222 23.0869 20.9676C23.4623 20.9246 23.9294 20.2547 24.0462 19.7909C24.2297 19.0781 23.9044 18.4855 23.0452 18.4855C21.7773 18.4855 20.5095 18.4855 19.1832 18.4855V21.0277H19.1915ZM10.7918 22.7454C9.42381 22.7454 8.14758 22.6509 6.89637 22.8055C6.52101 22.8484 6.0539 23.5183 5.93712 23.9821C5.75361 24.695 6.07892 25.2876 6.93808 25.2876C8.20597 25.2876 9.47385 25.2876 10.8001 25.2876V22.7454H10.7918ZM19.1915 25.279C20.5679 25.279 21.8858 25.3563 23.187 25.2275C23.5207 25.1931 24.0379 24.4888 24.0212 24.111C24.0045 23.6472 23.5457 22.857 23.2204 22.8141C21.8858 22.6681 20.5261 22.754 19.1915 22.754V25.2876V25.279Z" fill="#474747"/>
</svg>
