<svg width="30" height="30" viewBox="0 0 30 30" fill="none" xmlns="http://www.w3.org/2000/svg">
<path d="M26.9924 14.8009V16.4325H3.02213C3.02213 13.6119 2.9961 10.7654 3.04817 7.92747C3.04817 7.61504 3.37796 7.25922 3.64699 7.01622C5.26121 5.60161 6.90146 4.23039 8.51567 2.81579C9.42692 2.03471 10.2861 2.00868 11.1974 2.79843C12.8202 4.20436 14.4865 5.54954 16.0487 7.00754C16.4392 7.37204 16.6909 8.05765 16.7169 8.6044C16.795 10.6005 16.7516 12.5965 16.7516 14.7054H21.8113V10.748L18.5655 11.503V10.045C19.6069 9.48093 20.6657 9.07304 21.4901 8.38743C21.8894 8.05765 21.8546 7.18979 22.0716 6.30457C21.2992 6.63436 20.8132 6.89472 20.3012 7.05093C19.7631 7.21582 19.199 7.27657 18.5481 7.40675V5.67104C20.7611 5.51482 21.846 4.24775 21.9414 2H23.547C23.6858 4.14361 24.6839 5.50614 26.9837 5.67104V7.49354L23.7032 6.53022C23.5123 8.63043 24.0503 9.18586 26.9924 9.80204V11.4596L23.6685 10.7567V14.7922H26.9837L26.9924 14.8009ZM12.4557 14.7228H15.0333C15.0333 12.7267 15.0506 10.8348 15.0159 8.93418C15.0159 8.63043 14.8944 8.2399 14.6775 8.05765C13.1153 6.67775 11.5185 5.34125 9.87821 3.944C8.23796 5.34125 6.67581 6.65172 5.13971 7.98822C4.94878 8.15311 4.74917 8.45686 4.74917 8.69118C4.71446 10.7133 4.73181 12.7441 4.73181 14.7402H7.30067C7.30067 13.4904 7.28331 12.3101 7.30067 11.1299C7.32671 9.6545 7.34406 9.66318 10.3989 9.6545C11.4837 9.6545 12.5772 9.51565 12.4644 11.1733C12.3863 12.3101 12.4471 13.447 12.4471 14.7141L12.4557 14.7228ZM9.08846 14.7228H10.6332V11.451H9.08846V14.7228Z" fill="#474747"/>
<path d="M26.8633 21.6739C26.0475 21.2921 25.2317 21.0577 24.5808 20.5804C23.5394 19.8254 22.6368 19.7907 21.5867 20.5457C19.7729 21.8562 18.3062 21.8475 16.4924 20.537C15.503 19.8167 14.6178 19.808 13.6198 20.511C11.7018 21.8735 10.3653 21.8562 8.40393 20.4763C7.45797 19.808 6.60747 19.8254 5.64415 20.4676C4.92382 20.9449 4.09936 21.2574 3.11 21.752L3.00586 20.0771C3.69147 19.6431 4.30765 19.2352 4.94986 18.8621C6.45993 17.9855 7.97 17.9682 9.35858 19.0704C10.5215 19.999 11.5369 19.9382 12.7085 19.0704C14.2967 17.8901 15.8675 17.9161 17.4557 19.1224C18.5232 19.9382 19.4865 19.9556 20.5713 19.1832C22.4459 17.8467 23.6609 17.8901 25.6569 19.2613C26.6174 19.9209 27.0253 20.7222 26.8806 21.6652L26.8633 21.6739Z" fill="#474747"/>
<path d="M3.04665 26.0657V24.3213C3.68887 23.9307 4.30505 23.5142 4.95594 23.1497C6.41394 22.3078 7.89798 22.2384 9.23448 23.2972C10.4321 24.2345 11.4736 24.2866 12.7059 23.358C14.2767 22.1777 15.8562 22.2211 17.4531 23.4274C18.5292 24.2432 19.4926 24.2432 20.5687 23.4708C22.3825 22.1777 23.7364 22.2037 25.5502 23.4708C26.5801 24.194 27.014 25.0271 26.852 25.9702C26.0015 25.5536 25.1683 25.2412 24.448 24.7639C23.4847 24.1303 22.6342 24.0956 21.6796 24.7639C19.6314 26.1785 18.4685 26.1611 16.3509 24.7292C15.4483 24.1217 14.6152 24.1217 13.7039 24.7292C11.569 26.1698 10.4061 26.1785 8.3753 24.7639C7.42934 24.1043 6.57016 24.1303 5.60683 24.7639C4.88651 25.2412 4.05337 25.5536 3.0293 26.057L3.04665 26.0657Z" fill="#474747"/>
</svg>
