<svg width="30" height="30" viewBox="0 0 30 30" fill="none" xmlns="http://www.w3.org/2000/svg">
<path d="M15.2899 14.2388L4.98633 11.4484C5.84421 7.43895 8.05663 4.64859 11.7229 2.97799C16.0123 1.02744 21.1054 1.94853 24.5279 5.26265C27.7517 8.38713 28.8985 13.3357 27.255 17.4084L17.0237 14.6993C15.9762 18.6365 14.9016 22.4924 13.9353 26.3664C13.6193 27.6487 13.0684 28.1725 11.7139 27.6397L15.2899 14.2297V14.2388ZM15.7595 12.4959L18.008 4.07968C15.8678 3.54689 12.9149 7.28543 12.039 11.4755L15.7595 12.4959ZM21.3492 13.9678C21.9542 11.1865 22.1439 8.5587 21.3311 5.93992C21.1505 5.35295 20.5726 4.88338 20.1843 4.35059L19.7508 4.54023L17.4933 12.9655L21.3402 13.9678H21.3492ZM26.1353 15.196C26.4874 12.0625 25.765 9.46173 23.6881 7.02356C23.5887 9.10052 23.7061 10.9517 23.3539 12.7126C23.0469 14.2388 23.5165 14.7986 24.8981 14.9702C25.2322 15.0154 25.5664 15.0876 26.1353 15.1869V15.196ZM13.3303 4.26932C10.3774 5.29877 8.35463 7.19513 7.18972 10.1842L9.94396 10.9156L13.3303 4.26932Z" fill="#474747"/>
<path d="M6.53178 27.8112C4.55414 27.7932 2.95578 26.1316 3.00093 24.154C3.04609 22.1763 4.71669 20.596 6.69432 20.6683C8.60874 20.7315 10.1529 22.3298 10.1439 24.2533C10.1439 26.2309 8.50038 27.8383 6.52275 27.8203L6.53178 27.8112ZM8.37395 24.2985C8.28365 23.1787 7.69668 22.5105 6.61305 22.4834C5.50232 22.4472 4.86117 23.1335 4.82505 24.2172C4.78893 25.3279 5.47523 25.9691 6.54984 26.0052C7.66959 26.0503 8.21141 25.3279 8.37395 24.2985Z" fill="#474747"/>
</svg>
