<svg width="30" height="30" viewBox="0 0 30 30" fill="none" xmlns="http://www.w3.org/2000/svg">
<path d="M9.75967 5.69974C10.0496 2.58797 12.7361 1.13839 15.4903 2.52999C15.9156 2.74259 16.6017 2.87789 16.9786 2.69427C20.2836 1.03209 23.0282 2.62663 23.0862 6.30856C23.0862 6.72411 23.0862 7.13966 23.0862 7.71949H26.8454V9.59428H23.1828V14.1943C24.4971 15.1703 27.087 14.8901 26.8841 18.0212C25.879 17.538 25.1349 17.0258 24.3135 16.8325C23.521 16.6489 22.458 16.4943 21.8588 16.8712C20.0517 18.0115 18.4088 18.0888 16.6983 16.8229C15.8093 16.1657 14.9588 16.2044 14.0698 16.8808C12.4752 18.0888 10.813 18.0888 9.19916 16.9485C8.19412 16.2334 7.32437 16.185 6.3 16.9388C5.69118 17.3834 4.88908 17.5766 4.13529 17.8955C3.76807 15.8371 6.36765 14.001 8.58068 14.5132C10.4265 14.9481 13.4513 14.8804 15.2391 14.3682C15.2777 14.3586 15.2971 14.3006 15.3551 14.2233V9.66193H4V7.78714H15.384C15.384 6.90772 15.5773 6.11529 15.3261 5.48713C15.0845 4.87831 14.466 4.16318 13.8958 4.03755C13.3256 3.91192 12.2529 4.29848 12.0307 4.76234C11.4895 5.89302 10.7744 5.99932 9.75967 5.7094V5.69974ZM17.3458 9.71025C17.3458 11.3434 17.1622 12.8607 17.4328 14.2909C17.5488 14.8997 18.6021 15.7308 19.2399 15.7308C19.8777 15.7308 20.9698 14.9287 21.0857 14.3296C21.3563 12.851 21.1727 11.2951 21.1727 9.71025H17.3458ZM17.4424 7.60352H21.1147C21.25 4.88797 20.6605 3.81528 19.1433 3.90226C17.713 3.98923 17.2105 5.0426 17.4424 7.60352Z" fill="#474747"/>
<path d="M26.9625 22.8049C25.9285 22.341 25.1264 22.0994 24.4499 21.6549C23.5415 21.0654 22.7104 20.9398 21.8117 21.6163C20.1012 22.9112 18.4003 22.8822 16.6898 21.6163C15.8104 20.9591 14.9503 21.0074 14.0612 21.6742C12.4667 22.8822 10.8045 22.8822 9.20031 21.7419C8.19526 21.0268 7.33518 20.9688 6.31081 21.7226C5.70198 22.1671 4.90955 22.3604 4.15576 22.6793C3.75955 20.5726 6.49442 18.7074 8.73644 19.3452C9.03602 19.4322 9.37426 19.5289 9.60619 19.7221C10.9495 20.8335 12.1575 20.8045 13.607 19.7318C14.9213 18.7654 16.4772 19.065 17.7722 20.0217C18.8352 20.7948 19.7436 20.7465 20.8066 19.9927C22.5268 18.7847 25.6096 19.2003 26.7402 20.7852C27.0205 21.1814 26.8755 21.8675 26.9625 22.7952V22.8049Z" fill="#474747"/>
<path d="M26.6417 27.4725C25.8976 27.1246 25.1051 26.8444 24.419 26.4095C23.5009 25.82 22.6698 25.7524 21.7808 26.4192C20.1282 27.6658 18.4467 27.6658 16.7845 26.4578C15.8375 25.762 14.9774 25.7717 14.0303 26.4868C12.4358 27.6755 10.7639 27.6562 9.1694 26.4868C8.16436 25.762 7.28494 25.7814 6.27024 26.5255C5.67108 26.9604 4.87864 27.1343 4.11519 27.4436C3.79628 25.2788 6.55049 23.462 8.77318 24.1482C9.2757 24.3028 9.75889 24.5637 10.1841 24.8633C11.1215 25.5398 12.0202 25.6074 12.9576 24.8923C14.5618 23.6746 16.2047 23.6843 17.8186 24.8343C18.8236 25.5494 19.703 25.5398 20.7274 24.8343C22.6022 23.549 25.1534 23.8293 26.6707 25.4915C26.9896 25.8394 26.9026 26.5545 26.9992 27.1053L26.6513 27.4629L26.6417 27.4725Z" fill="#474747"/>
</svg>
