<svg width="30" height="30" viewBox="0 0 30 30" fill="none" xmlns="http://www.w3.org/2000/svg">
<path d="M10.3315 23.2603H2V21.4138C4.86189 21.4138 7.69553 21.3295 10.5198 21.4513C11.9507 21.5076 12.8827 21.0483 13.5323 19.6236H2.00941V17.7678L3.76985 17.6273C3.76985 13.6063 3.74161 9.65104 3.79809 5.69574C3.80751 4.85219 3.96755 3.92429 4.3347 3.17447C5.14431 1.51549 7.15893 0.681317 8.91937 1.11246C10.708 1.54361 12.0354 3.12761 12.139 5.00216C12.1766 5.72386 12.1484 6.44556 12.1484 7.16726C12.1484 7.83273 12.1484 8.49819 12.1484 9.53857C13.617 8.4607 14.935 7.59841 16.1212 6.59552C17.2414 5.6395 18.1452 5.48017 19.3031 6.59552C20.4422 7.70151 21.779 8.61066 23.2476 9.77288V6.68925H25.1305C25.4882 9.01369 24.1137 11.9849 27.7099 13.1002L26.5332 14.6655L25.3093 13.9156V17.5241C25.3564 17.5616 25.4411 17.6647 25.5164 17.6741C28.3124 17.6929 27.9829 17.9553 27.9923 20.3453C27.9923 22.0981 27.9735 23.8508 27.9923 25.6035C28.0018 26.4658 27.6911 27 26.7591 27C18.5406 27 10.3221 27 2 27V25.1442C3.81692 25.1442 5.61502 25.1442 7.4037 25.1442C8.55222 25.1442 9.52501 24.5225 10.3221 23.279L10.3315 23.2603ZM10.2844 17.6366C10.2844 13.4564 10.3032 9.45421 10.2844 5.44267C10.2844 3.90554 9.33359 2.89329 8.0062 2.86517C6.61291 2.83705 5.65267 3.87743 5.63384 5.50828C5.61502 8.38572 5.63384 11.2632 5.63384 14.1406C5.63384 15.3028 5.63384 16.465 5.63384 17.6366H10.2938H10.2844ZM23.3324 17.6366C23.3324 15.9683 23.37 14.4311 23.3041 12.894C23.2853 12.5004 23.0311 12.0036 22.7204 11.7505C21.1012 10.4009 19.4349 9.11679 17.7121 7.74837C16.0176 8.99495 14.3513 10.204 12.7227 11.4506C12.4685 11.6474 12.1861 12.0036 12.1766 12.2942C12.1296 14.075 12.1484 15.8558 12.1484 17.6273H14.8785C14.8973 17.3179 14.935 17.0743 14.935 16.8306C14.9726 12.5753 14.2289 13.1002 19.0584 13.0627C19.1054 13.0627 19.1619 13.0627 19.209 13.0627C20.1222 13.0252 20.527 13.4845 20.527 14.3749C20.5175 15.4434 20.527 16.5119 20.527 17.6366H23.3229H23.3324ZM19.1337 19.858L19.0113 19.4549C18.0322 19.5862 16.7331 19.3706 16.1306 19.9142C14.4831 21.3951 13.1275 23.204 11.6495 24.8818L11.8848 25.3691C12.958 25.0786 14.2854 25.088 15.0385 24.4412C16.573 23.1009 17.7969 21.4138 19.1431 19.8673L19.1337 19.858ZM17.2791 24.8349L17.4203 25.2004C18.3711 25.0973 19.642 25.3504 20.2163 24.8349C21.892 23.3165 23.2947 21.4888 24.801 19.783L24.575 19.38C23.5583 19.5768 22.2403 19.4549 21.5719 20.0454C19.9809 21.4607 18.6912 23.2134 17.2791 24.8349ZM22.7299 24.9849H25.9966V21.2639L22.7299 24.9849ZM16.9402 14.9654V17.6085H18.5877V14.9654H16.9402Z" fill="#474747"/>
</svg>
