<svg width="44" height="45" viewBox="0 0 44 45" fill="none" xmlns="http://www.w3.org/2000/svg">
<rect y="0.818359" width="44" height="44" rx="5" fill="white" fill-opacity="0.1"/>
<g clip-path="url(#clip0_1_260)">
<path d="M32 16.6171C31.2563 16.9434 30.4637 17.1596 29.6375 17.2646C30.4875 16.7571 31.1363 15.9596 31.4412 14.9984C30.6488 15.4709 29.7738 15.8046 28.8412 15.9909C28.0887 15.1896 27.0162 14.6934 25.8462 14.6934C23.5763 14.6934 21.7487 16.5359 21.7487 18.7946C21.7487 19.1196 21.7762 19.4321 21.8438 19.7296C18.435 19.5634 15.4188 17.9296 13.3925 15.4409C13.0387 16.0546 12.8313 16.7571 12.8313 17.5134C12.8313 18.9334 13.5625 20.1921 14.6525 20.9209C13.9937 20.9084 13.3475 20.7171 12.8 20.4159C12.8 20.4284 12.8 20.4446 12.8 20.4609C12.8 22.4534 14.2212 24.1084 16.085 24.4896C15.7512 24.5809 15.3875 24.6246 15.01 24.6246C14.7475 24.6246 14.4825 24.6096 14.2337 24.5546C14.765 26.1784 16.2725 27.3721 18.065 27.4109C16.67 28.5021 14.8988 29.1596 12.9813 29.1596C12.645 29.1596 12.3225 29.1446 12 29.1034C13.8162 30.2746 15.9688 30.9434 18.29 30.9434C25.835 30.9434 29.96 24.6934 29.96 19.2759C29.96 19.0946 29.9538 18.9196 29.945 18.7459C30.7588 18.1684 31.4425 17.4471 32 16.6171Z" fill="white"/>
</g>
<defs>
<clipPath id="clip0_1_260">
<rect width="20" height="20" fill="white" transform="translate(12 12.8184)"/>
</clipPath>
</defs>
</svg>
