<svg width="45" height="45" viewBox="0 0 45 45" fill="none" xmlns="http://www.w3.org/2000/svg">
<rect x="0.5" y="0.818359" width="44" height="44" rx="5" fill="white" fill-opacity="0.1"/>
<g clip-path="url(#clip0_1_248)">
<path d="M32.495 32.8185V32.8176H32.5V25.4826C32.5 21.8943 31.7275 19.1301 27.5324 19.1301C25.5158 19.1301 24.1624 20.2368 23.6099 21.286H23.5516V19.4651H19.5741V32.8176H23.7158V26.206C23.7158 24.4651 24.0458 22.7818 26.2016 22.7818C28.3258 22.7818 28.3574 24.7685 28.3574 26.3176V32.8185H32.495Z" fill="white"/>
<path d="M12.83 19.4658H16.9766V32.8183H12.83V19.4658Z" fill="white"/>
<path d="M14.9017 12.8184C13.5758 12.8184 12.5 13.8942 12.5 15.22C12.5 16.5459 13.5758 17.6442 14.9017 17.6442C16.2275 17.6442 17.3033 16.5459 17.3033 15.22C17.3025 13.8942 16.2267 12.8184 14.9017 12.8184V12.8184Z" fill="white"/>
</g>
<defs>
<clipPath id="clip0_1_248">
<rect width="20" height="20" fill="white" transform="translate(12.5 12.8184)"/>
</clipPath>
</defs>
</svg>
