<svg width="45" height="45" viewBox="0 0 45 45" fill="none" xmlns="http://www.w3.org/2000/svg">
<rect x="0.5" y="0.818359" width="44" height="44" rx="5" fill="white" fill-opacity="0.1"/>
<g clip-path="url(#clip0_1_242)">
<path d="M32.4804 18.6984C32.4336 17.6357 32.2617 16.9052 32.0156 16.2721C31.7616 15.6001 31.3709 14.9985 30.859 14.4984C30.3589 13.9905 29.7533 13.5958 29.0891 13.3458C28.4524 13.0996 27.7256 12.9278 26.663 12.8809C25.5923 12.8301 25.2525 12.8184 22.5371 12.8184C19.8217 12.8184 19.4818 12.8301 18.4152 12.877C17.3525 12.9238 16.6219 13.0958 15.989 13.3418C15.3169 13.5958 14.7153 13.9865 14.2152 14.4984C13.7073 14.9985 13.3127 15.6041 13.0626 16.2683C12.8164 16.9052 12.6446 17.6318 12.5977 18.6944C12.5469 19.7651 12.5352 20.1049 12.5352 22.8203C12.5352 25.5357 12.5469 25.8756 12.5938 26.9422C12.6406 28.0049 12.8126 28.7355 13.0588 29.3685C13.3127 30.0405 13.7073 30.6421 14.2152 31.1423C14.7153 31.6502 15.3209 32.0448 15.9851 32.2948C16.6219 32.541 17.3486 32.7128 18.4114 32.7597C19.4779 32.8067 19.8179 32.8183 22.5333 32.8183C25.2486 32.8183 25.5885 32.8067 26.6552 32.7597C27.7178 32.7128 28.4484 32.541 29.0813 32.2948C30.4254 31.7752 31.4881 30.7125 32.0078 29.3685C32.2538 28.7317 32.4258 28.0049 32.4726 26.9422C32.5195 25.8756 32.5312 25.5357 32.5312 22.8203C32.5312 20.1049 32.5273 19.7651 32.4804 18.6984ZM30.6794 26.8641C30.6364 27.8408 30.4723 28.3683 30.3355 28.7199C29.9995 29.5912 29.308 30.2827 28.4367 30.6188C28.085 30.7555 27.5538 30.9196 26.5808 30.9625C25.526 31.0095 25.2096 31.0211 22.5411 31.0211C19.8725 31.0211 19.5522 31.0095 18.5011 30.9625C17.5244 30.9196 16.9969 30.7555 16.6453 30.6188C16.2117 30.4585 15.817 30.2046 15.4967 29.8725C15.1646 29.5482 14.9106 29.1575 14.7504 28.7239C14.6137 28.3722 14.4496 27.8408 14.4067 26.868C14.3597 25.8131 14.3481 25.4966 14.3481 22.8281C14.3481 20.1596 14.3597 19.8392 14.4067 18.7883C14.4496 17.8116 14.6137 17.2841 14.7504 16.9325C14.9106 16.4987 15.1646 16.1042 15.5007 15.7837C15.8248 15.4516 16.2155 15.1977 16.6493 15.0376C17.0009 14.9008 17.5323 14.7368 18.5051 14.6937C19.56 14.6469 19.8765 14.6351 22.5449 14.6351C25.2174 14.6351 25.5337 14.6469 26.5848 14.6937C27.5616 14.7368 28.089 14.9008 28.4406 15.0376C28.8742 15.1977 29.2689 15.4516 29.5892 15.7837C29.9213 16.108 30.1753 16.4987 30.3355 16.9325C30.4723 17.2841 30.6364 17.8154 30.6794 18.7883C30.7262 19.8432 30.738 20.1596 30.738 22.8281C30.738 25.4966 30.7262 25.8092 30.6794 26.8641Z" fill="white"/>
<path d="M22.5362 17.6826C19.6998 17.6826 17.3984 19.9838 17.3984 22.8203C17.3984 25.6569 19.6998 27.9581 22.5362 27.9581C25.3727 27.9581 27.6739 25.6569 27.6739 22.8203C27.6739 19.9838 25.3727 17.6826 22.5362 17.6826ZM22.5362 26.1531C20.696 26.1531 19.2034 24.6606 19.2034 22.8203C19.2034 20.9801 20.696 19.4876 22.5362 19.4876C24.3764 19.4876 25.8689 20.9801 25.8689 22.8203C25.8689 24.6606 24.3764 26.1531 22.5362 26.1531Z" fill="white"/>
<path d="M29.0767 17.4797C29.0767 18.1421 28.5397 18.6791 27.8772 18.6791C27.2148 18.6791 26.6777 18.1421 26.6777 17.4797C26.6777 16.8172 27.2148 16.2803 27.8772 16.2803C28.5397 16.2803 29.0767 16.8172 29.0767 17.4797Z" fill="white"/>
</g>
<defs>
<clipPath id="clip0_1_242">
<rect width="20" height="20" fill="white" transform="translate(12.5 12.8184)"/>
</clipPath>
</defs>
</svg>
