<svg width="18" height="24" viewBox="0 0 18 24" fill="none" xmlns="http://www.w3.org/2000/svg">
<path d="M8.81196 8.72946L7.02107 10.4142C7.25617 11.2643 7.58693 12.0822 8.00638 12.8504C8.44295 13.6133 8.96813 14.3165 9.56989 14.9438L11.8892 14.1945C13.1885 13.7745 14.6069 14.2059 15.4709 15.2844L16.7919 16.9327C17.3267 17.5945 17.5949 18.4485 17.5395 19.3139C17.4841 20.1793 17.1096 20.9882 16.4952 21.5691C14.3405 23.6307 11.023 24.3277 8.5391 22.282C6.3561 20.4798 4.50903 18.2707 3.09065 15.7657C1.66917 13.2725 0.717859 10.5161 0.288472 7.64644C-0.187943 4.4178 2.06636 1.83399 4.87721 0.953038C6.55332 0.426285 8.34204 1.32994 8.95705 3.01464L9.6825 5.00132C10.1589 6.30912 9.81676 7.78266 8.81196 8.72719V8.72946Z" fill="white"/>
</svg>
