<svg width="23" height="30" viewBox="0 0 23 30" fill="none" xmlns="http://www.w3.org/2000/svg">
<path d="M11.5505 0.882324C8.54781 0.885875 5.66907 2.08319 3.54582 4.21162C1.42256 6.34005 0.228164 9.2258 0.224621 12.2359C0.221025 14.6957 1.02256 17.0888 2.50628 19.048C2.50628 19.048 2.81517 19.4557 2.86562 19.5145L11.5505 29.7822L20.2396 19.5093C20.2849 19.4546 20.5948 19.048 20.5948 19.048L20.5958 19.0449C22.0788 17.0865 22.88 14.6946 22.8765 12.2359C22.8729 9.2258 21.6785 6.34005 19.5553 4.21162C17.432 2.08319 14.5533 0.885875 11.5505 0.882324ZM11.5505 16.3644C10.736 16.3644 9.9397 16.1223 9.26242 15.6686C8.58513 15.215 8.05725 14.5702 7.74553 13.8158C7.43381 13.0614 7.35225 12.2313 7.51116 11.4304C7.67007 10.6296 8.06232 9.89392 8.63831 9.31653C9.21429 8.73914 9.94814 8.34593 10.7471 8.18663C11.546 8.02733 12.3741 8.10909 13.1266 8.42157C13.8792 8.73405 14.5224 9.26322 14.975 9.94216C15.4275 10.6211 15.6691 11.4193 15.6691 12.2359C15.6677 13.3304 15.2333 14.3797 14.4613 15.1537C13.6892 15.9276 12.6424 16.3631 11.5505 16.3644Z" fill="white"/>
</svg>
