<svg width="23" height="20" viewBox="0 0 23 20" fill="none" xmlns="http://www.w3.org/2000/svg">
<path d="M0.224609 6.01954L11.1943 11.776C11.3043 11.8337 11.4265 11.8639 11.5505 11.8639C11.6746 11.8639 11.7968 11.8337 11.9068 11.776L22.8765 6.02058V16.0199C22.8765 16.8823 22.5495 17.712 21.9625 18.3389C21.3755 18.9658 20.573 19.3422 19.7196 19.3911L19.5302 19.3962H3.57091C2.71617 19.3963 1.89382 19.0663 1.27254 18.4741C0.651254 17.8818 0.278149 17.0721 0.229758 16.211L0.224609 16.0199V6.01954ZM3.57091 0.696289H19.5302C20.3849 0.696233 21.2073 1.02619 21.8285 1.61848C22.4498 2.21077 22.8229 3.02048 22.8713 3.88152L22.8765 4.07267V4.26383L11.5505 10.2063L0.224609 4.26383V4.07267C0.224553 3.21025 0.551573 2.3805 1.13858 1.75364C1.72559 1.12677 2.52809 0.75031 3.38146 0.701484L3.57091 0.696289H19.5302H3.57091Z" fill="white"/>
</svg>
