<svg width="47" height="48" viewBox="0 0 47 48" fill="none" xmlns="http://www.w3.org/2000/svg">
<rect y="0.796631" width="47" height="47" rx="5" fill="white" fill-opacity="0.5"/>
<path d="M38.5476 14.48C37.4263 14.9769 36.2217 15.3126 34.9554 15.4643C36.262 14.6825 37.2395 13.452 37.7056 12.0024C36.478 12.7316 35.1345 13.2448 33.7334 13.5199C32.7912 12.5139 31.5433 11.8471 30.1833 11.623C28.8234 11.399 27.4275 11.6302 26.2124 12.2807C24.9973 12.9313 24.031 13.9648 23.4634 15.2209C22.8959 16.4769 22.759 17.8852 23.0738 19.227C20.5864 19.1021 18.1531 18.4556 15.9317 17.3294C13.7104 16.2032 11.7506 14.6226 10.1797 12.69C9.64255 13.6165 9.3337 14.6908 9.3337 15.8349C9.3331 16.8649 9.58674 17.8791 10.0721 18.7875C10.5575 19.696 11.2596 20.4705 12.1161 21.0425C11.1228 21.0109 10.1513 20.7425 9.28267 20.2597V20.3402C9.28257 21.7848 9.78226 23.1849 10.6969 24.303C11.6116 25.4211 12.885 26.1883 14.3009 26.4744C13.3794 26.7238 12.4133 26.7605 11.4756 26.5818C11.8751 27.8248 12.6532 28.9117 13.7012 29.6904C14.7491 30.4692 16.0143 30.9007 17.3197 30.9246C15.1037 32.6642 12.3671 33.6078 9.5499 33.6036C9.05087 33.6038 8.55226 33.5746 8.05664 33.5163C10.9162 35.355 14.245 36.3307 17.6446 36.3269C29.1529 36.3269 35.4442 26.7953 35.4442 18.5287C35.4442 18.2601 35.4375 17.9889 35.4254 17.7203C36.6491 16.8353 37.7055 15.7395 38.5449 14.484L38.5476 14.48Z" fill="white"/>
</svg>
