<svg width="47" height="48" viewBox="0 0 47 48" fill="none" xmlns="http://www.w3.org/2000/svg">
<rect y="0.796631" width="47" height="47" rx="5" fill="white" fill-opacity="0.5"/>
<path d="M22.8254 18.0782C19.0125 18.0782 15.9353 21.1554 15.9353 24.9684C15.9353 28.7813 19.0125 31.8585 22.8254 31.8585C26.6382 31.8585 29.7154 28.7813 29.7154 24.9684C29.7154 21.1554 26.6382 18.0782 22.8254 18.0782ZM22.8254 29.4465C20.3596 29.4465 18.3473 27.4342 18.3473 24.9684C18.3473 22.5026 20.3596 20.4903 22.8254 20.4903C25.2911 20.4903 27.3034 22.5026 27.3034 24.9684C27.3034 27.4342 25.2911 29.4465 22.8254 29.4465ZM29.9976 16.1902C29.1073 16.1902 28.3884 16.9091 28.3884 17.7994C28.3884 18.6896 29.1073 19.4085 29.9976 19.4085C30.8878 19.4085 31.6067 18.693 31.6067 17.7994C31.607 17.588 31.5655 17.3786 31.4847 17.1833C31.404 16.9879 31.2855 16.8104 31.136 16.6609C30.9865 16.5115 30.809 16.3929 30.6137 16.3122C30.4183 16.2314 30.209 16.19 29.9976 16.1902ZM36.256 24.9684C36.256 23.114 36.2728 21.2764 36.1687 19.4253C36.0646 17.2753 35.5741 15.3672 34.0019 13.795C32.4264 12.2194 30.5216 11.7323 28.3716 11.6281C26.5173 11.524 24.6797 11.5408 22.8287 11.5408C20.9743 11.5408 19.1368 11.524 17.2858 11.6281C15.1358 11.7323 13.2277 12.2228 11.6555 13.795C10.08 15.3705 9.59287 17.2753 9.48873 19.4253C9.38459 21.2797 9.40139 23.1173 9.40139 24.9684C9.40139 26.8194 9.38459 28.6604 9.48873 30.5114C9.59287 32.6614 10.0833 34.5696 11.6555 36.1418C13.231 37.7173 15.1358 38.2044 17.2858 38.3086C19.1401 38.4127 20.9777 38.3959 22.8287 38.3959C24.6831 38.3959 26.5206 38.4127 28.3716 38.3086C30.5216 38.2044 32.4297 37.714 34.0019 36.1418C35.5774 34.5662 36.0646 32.6614 36.1687 30.5114C36.2762 28.6604 36.256 26.8228 36.256 24.9684ZM33.2998 32.8899C33.0546 33.5013 32.7589 33.9582 32.2853 34.4285C31.8116 34.9021 31.3581 35.1978 30.7467 35.443C28.9797 36.1451 24.7839 35.9872 22.8254 35.9872C20.8668 35.9872 16.6677 36.1451 14.9006 35.4464C14.2892 35.2011 13.8324 34.9055 13.3621 34.4318C12.8884 33.9582 12.5928 33.5046 12.3475 32.8932C11.6488 31.1228 11.8067 26.9269 11.8067 24.9684C11.8067 23.0098 11.6488 18.8106 12.3475 17.0435C12.5928 16.4321 12.8884 15.9752 13.3621 15.5049C13.8357 15.0346 14.2892 14.7356 14.9006 14.4904C16.6677 13.7916 20.8668 13.9495 22.8254 13.9495C24.7839 13.9495 28.983 13.7916 30.7501 14.4904C31.3615 14.7356 31.8183 15.0312 32.2886 15.5049C32.7623 15.9786 33.0579 16.4321 33.3032 17.0435C34.0019 18.8106 33.844 23.0098 33.844 24.9684C33.844 26.9269 34.0019 31.1228 33.2998 32.8899Z" fill="white"/>
</svg>
