<svg width="47" height="48" viewBox="0 0 47 48" fill="none" xmlns="http://www.w3.org/2000/svg">
<rect y="0.796631" width="47" height="47" rx="5" fill="white" fill-opacity="0.5"/>
<path d="M9.40039 24.297C9.40039 30.3165 13.1733 35.456 18.4831 37.4782C18.3539 36.3772 18.2164 34.5618 18.5125 33.2881C18.7675 32.193 20.1587 26.311 20.1587 26.311C20.1587 26.311 19.7392 25.4708 19.7392 24.2265C19.7392 22.276 20.8696 20.819 22.2784 20.819C23.4769 20.819 24.055 21.7179 24.055 22.7954C24.055 23.9997 23.2877 25.7998 22.8917 27.4695C22.5616 28.8666 23.5932 30.0063 24.9703 30.0063C27.4648 30.0063 29.3836 27.3755 29.3836 23.5779C29.3836 20.2162 26.9678 17.8674 23.5192 17.8674C19.5265 17.8674 17.1824 20.8625 17.1824 23.9586C17.1824 25.1653 17.6465 26.4578 18.227 27.1617C18.2765 27.2148 18.3114 27.2798 18.3285 27.3504C18.3456 27.421 18.3442 27.4948 18.3245 27.5647C18.2176 28.0088 17.9802 28.9618 17.9344 29.1568C17.8721 29.413 17.7311 29.4682 17.4644 29.3436C15.7113 28.5282 14.6162 25.9655 14.6162 23.9069C14.6162 19.4783 17.8322 15.4128 23.8893 15.4128C28.7585 15.4128 32.5432 18.8826 32.5432 23.5192C32.5432 28.3566 29.4941 32.2506 25.2594 32.2506C23.8364 32.2506 22.5005 31.5103 22.0422 30.6373C22.0422 30.6373 21.3384 33.3187 21.168 33.9743C20.8367 35.248 19.9178 36.8601 19.3479 37.7754C20.6616 38.1796 22.0551 38.397 23.5004 38.397C31.2871 38.397 37.6004 32.0837 37.6004 24.297C37.6004 16.5103 31.2871 10.197 23.5004 10.197C15.7137 10.197 9.40039 16.5103 9.40039 24.297Z" fill="white"/>
</svg>
