<svg width="47" height="48" viewBox="0 0 47 48" fill="none" xmlns="http://www.w3.org/2000/svg">
<rect y="0.796631" width="47" height="47" rx="5" fill="white" fill-opacity="0.5"/>
<path fill-rule="evenodd" clip-rule="evenodd" d="M20.2214 20.4302H24.9594V22.7903C25.6419 21.433 27.3922 20.2134 30.0215 20.2134C35.0618 20.2134 36.2584 22.9153 36.2584 27.8728V37.0541H31.1556V29.0018C31.1556 26.1786 30.4731 24.5865 28.7355 24.5865C26.3257 24.5865 25.3243 26.3024 25.3243 29.0005V37.0541H20.2214V20.4302ZM11.4713 36.8372H16.5742V20.2134H11.4713V36.8372ZM17.3051 14.7929C17.3053 15.2206 17.2205 15.6441 17.0556 16.0387C16.8907 16.4334 16.649 16.7913 16.3445 17.0917C15.7276 17.7048 14.8925 18.048 14.0227 18.0459C13.1545 18.0454 12.3213 17.703 11.7035 17.093C11.4001 16.7915 11.1592 16.4332 10.9946 16.0385C10.83 15.6438 10.7449 15.2205 10.7441 14.7929C10.7441 13.9292 11.0886 13.1025 11.7048 12.4928C12.3221 11.8819 13.1555 11.5394 14.024 11.5398C14.894 11.5398 15.7284 11.883 16.3445 12.4928C16.9594 13.1025 17.3051 13.9292 17.3051 14.7929Z" fill="white"/>
</svg>
